<?xml version="1.0" standalone="no"?>
<!DOCTYPE svg PUBLIC "-//W3C//DTD SVG 20010904//EN"
 "http://www.w3.org/TR/2001/REC-SVG-20010904/DTD/svg10.dtd">
<svg version="1.0" xmlns="http://www.w3.org/2000/svg"
 width="1500.000000pt" height="1500.000000pt" viewBox="0 0 1500.000000 1500.000000"
 preserveAspectRatio="xMidYMid meet">

<g transform="translate(0.000000,1500.000000) scale(0.100000,-0.100000)"
fill="#000000" stroke="none">
<path d="M5020 8655 l0 -1435 295 0 295 0 0 1435 0 1435 -295 0 -295 0 0
-1435z"/>
<path d="M3309 8964 c-303 -54 -546 -285 -646 -611 -25 -82 -27 -102 -27 -273
-1 -161 2 -195 21 -265 85 -310 304 -536 598 -617 68 -19 105 -22 250 -22 195
1 273 14 387 67 40 18 91 49 112 68 l39 34 -6 -111 c-10 -179 -51 -265 -160
-335 -97 -63 -178 -83 -306 -76 -180 10 -312 70 -385 175 l-27 40 -240 -116
c-152 -74 -239 -122 -239 -131 0 -27 79 -149 137 -211 141 -153 355 -242 648
-270 408 -39 766 74 975 307 58 65 132 208 155 298 31 123 35 239 35 1123 l0
892 -295 0 -295 0 0 -75 c0 -41 -3 -75 -6 -75 -3 0 -23 13 -43 29 -182 144
-432 201 -682 155z m461 -506 c223 -67 335 -313 248 -546 -28 -75 -111 -162
-189 -196 -190 -86 -413 -26 -516 138 -69 108 -74 296 -12 417 29 57 113 137
173 165 88 40 205 49 296 22z"/>
<path d="M6569 8964 c-303 -54 -546 -285 -646 -611 -25 -82 -27 -102 -27 -273
-1 -161 2 -195 21 -265 103 -377 396 -620 775 -642 219 -13 396 48 556 192
l52 47 0 -96 0 -96 295 0 295 0 0 855 0 855 -295 0 -295 0 0 -81 0 -81 -42 34
c-183 150 -434 209 -689 162z m461 -506 c223 -67 335 -313 248 -546 -28 -75
-111 -162 -189 -196 -190 -86 -413 -26 -516 138 -69 108 -74 296 -12 417 29
57 113 137 173 165 88 40 205 49 296 22z"/>
<path d="M9210 8956 c-103 -31 -166 -65 -260 -141 l-80 -65 0 90 0 90 -295 0
-295 0 0 -855 0 -855 295 0 295 0 0 510 c0 321 4 527 11 558 5 28 25 74 42
103 26 44 43 60 91 83 50 25 70 30 135 29 124 -1 196 -43 252 -146 l34 -62 3
-537 3 -538 294 0 294 0 3 538 3 537 27 55 c54 112 121 153 248 153 164 0 265
-91 290 -260 5 -37 10 -283 10 -545 l0 -478 296 0 295 0 -3 633 c-4 620 -5
633 -26 706 -28 90 -43 122 -93 186 -105 138 -327 235 -539 235 -185 0 -355
-81 -511 -241 l-66 -68 -42 59 c-23 33 -65 79 -94 102 -158 126 -430 181 -617
124z"/>
<path d="M12085 8966 c-186 -31 -305 -86 -406 -186 -107 -106 -145 -211 -137
-380 6 -121 34 -186 115 -271 96 -101 215 -171 436 -254 120 -46 167 -85 167
-139 0 -84 -57 -126 -171 -126 -101 0 -285 76 -392 161 -21 17 -40 29 -42 28
-10 -11 -235 -391 -235 -398 0 -10 106 -89 150 -111 251 -125 593 -154 890
-75 201 54 340 170 394 329 65 192 31 405 -86 532 -82 89 -245 180 -398 223
-94 26 -176 57 -216 82 -56 34 -70 99 -31 144 57 67 320 44 490 -42 27 -13 50
-23 52 -21 1 2 46 89 98 194 l96 192 -68 30 c-70 31 -144 54 -261 78 -96 21
-348 26 -445 10z"/>
</g>
</svg>
